<mxfile host="Electron" modified="2024-05-23T12:59:42.545Z" agent="Mozilla/5.0 (Windows NT 10.0; Win64; x64) AppleWebKit/537.36 (KHTML, like Gecko) draw.io/22.1.21 Chrome/120.0.6099.109 Electron/28.1.0 Safari/537.36" etag="VHrANG5RtIk1NWT328Wu" version="22.1.21" type="device">
  <diagram name="Page-1" id="formEAupzQEbZBJpp6wK">
    <mxGraphModel dx="2440" dy="1955" grid="1" gridSize="10" guides="1" tooltips="1" connect="1" arrows="1" fold="1" page="1" pageScale="1" pageWidth="827" pageHeight="1169" math="0" shadow="0">
      <root>
        <mxCell id="0" />
        <mxCell id="1" parent="0" />
        <mxCell id="o-XcE64dzOmIVGHSRt7X-18" style="edgeStyle=orthogonalEdgeStyle;rounded=0;orthogonalLoop=1;jettySize=auto;html=1;entryX=0.5;entryY=0;entryDx=0;entryDy=0;" edge="1" parent="1" source="o-XcE64dzOmIVGHSRt7X-1" target="o-XcE64dzOmIVGHSRt7X-17">
          <mxGeometry relative="1" as="geometry" />
        </mxCell>
        <mxCell id="o-XcE64dzOmIVGHSRt7X-1" value="menu" style="rounded=0;whiteSpace=wrap;html=1;" vertex="1" parent="1">
          <mxGeometry x="370" y="90" width="120" height="60" as="geometry" />
        </mxCell>
        <mxCell id="o-XcE64dzOmIVGHSRt7X-14" style="edgeStyle=orthogonalEdgeStyle;rounded=0;orthogonalLoop=1;jettySize=auto;html=1;entryX=0.5;entryY=0;entryDx=0;entryDy=0;" edge="1" parent="1" source="o-XcE64dzOmIVGHSRt7X-15" target="o-XcE64dzOmIVGHSRt7X-1">
          <mxGeometry relative="1" as="geometry" />
        </mxCell>
        <mxCell id="o-XcE64dzOmIVGHSRt7X-13" value="player" style="rounded=0;whiteSpace=wrap;html=1;" vertex="1" parent="1">
          <mxGeometry x="370" y="-110" width="120" height="60" as="geometry" />
        </mxCell>
        <mxCell id="o-XcE64dzOmIVGHSRt7X-16" value="" style="edgeStyle=orthogonalEdgeStyle;rounded=0;orthogonalLoop=1;jettySize=auto;html=1;entryX=0.5;entryY=0;entryDx=0;entryDy=0;" edge="1" parent="1" source="o-XcE64dzOmIVGHSRt7X-13" target="o-XcE64dzOmIVGHSRt7X-15">
          <mxGeometry relative="1" as="geometry">
            <mxPoint x="430" y="-50" as="sourcePoint" />
            <mxPoint x="430" y="90" as="targetPoint" />
          </mxGeometry>
        </mxCell>
        <mxCell id="o-XcE64dzOmIVGHSRt7X-15" value="open" style="ellipse;whiteSpace=wrap;html=1;" vertex="1" parent="1">
          <mxGeometry x="390" y="-10" width="80" height="30" as="geometry" />
        </mxCell>
        <mxCell id="o-XcE64dzOmIVGHSRt7X-26" style="edgeStyle=orthogonalEdgeStyle;rounded=0;orthogonalLoop=1;jettySize=auto;html=1;entryX=0.5;entryY=0;entryDx=0;entryDy=0;" edge="1" parent="1" source="o-XcE64dzOmIVGHSRt7X-17" target="o-XcE64dzOmIVGHSRt7X-24">
          <mxGeometry relative="1" as="geometry" />
        </mxCell>
        <mxCell id="o-XcE64dzOmIVGHSRt7X-27" style="edgeStyle=orthogonalEdgeStyle;rounded=0;orthogonalLoop=1;jettySize=auto;html=1;" edge="1" parent="1" source="o-XcE64dzOmIVGHSRt7X-17" target="o-XcE64dzOmIVGHSRt7X-21">
          <mxGeometry relative="1" as="geometry" />
        </mxCell>
        <mxCell id="o-XcE64dzOmIVGHSRt7X-28" style="edgeStyle=orthogonalEdgeStyle;rounded=0;orthogonalLoop=1;jettySize=auto;html=1;entryX=0.5;entryY=0;entryDx=0;entryDy=0;" edge="1" parent="1" source="o-XcE64dzOmIVGHSRt7X-17" target="o-XcE64dzOmIVGHSRt7X-25">
          <mxGeometry relative="1" as="geometry" />
        </mxCell>
        <mxCell id="o-XcE64dzOmIVGHSRt7X-29" style="edgeStyle=orthogonalEdgeStyle;rounded=0;orthogonalLoop=1;jettySize=auto;html=1;entryX=0.5;entryY=0;entryDx=0;entryDy=0;" edge="1" parent="1" source="o-XcE64dzOmIVGHSRt7X-17" target="o-XcE64dzOmIVGHSRt7X-19">
          <mxGeometry relative="1" as="geometry" />
        </mxCell>
        <mxCell id="o-XcE64dzOmIVGHSRt7X-30" style="edgeStyle=orthogonalEdgeStyle;rounded=0;orthogonalLoop=1;jettySize=auto;html=1;entryX=0.5;entryY=0;entryDx=0;entryDy=0;" edge="1" parent="1" source="o-XcE64dzOmIVGHSRt7X-17" target="o-XcE64dzOmIVGHSRt7X-23">
          <mxGeometry relative="1" as="geometry">
            <Array as="points">
              <mxPoint x="530" y="200" />
            </Array>
          </mxGeometry>
        </mxCell>
        <mxCell id="o-XcE64dzOmIVGHSRt7X-43" style="edgeStyle=orthogonalEdgeStyle;rounded=0;orthogonalLoop=1;jettySize=auto;html=1;entryX=0.5;entryY=0;entryDx=0;entryDy=0;" edge="1" parent="1" source="o-XcE64dzOmIVGHSRt7X-17" target="o-XcE64dzOmIVGHSRt7X-42">
          <mxGeometry relative="1" as="geometry" />
        </mxCell>
        <mxCell id="o-XcE64dzOmIVGHSRt7X-17" value="select" style="ellipse;whiteSpace=wrap;html=1;" vertex="1" parent="1">
          <mxGeometry x="390" y="190" width="80" height="20" as="geometry" />
        </mxCell>
        <mxCell id="o-XcE64dzOmIVGHSRt7X-54" value="select" style="edgeStyle=orthogonalEdgeStyle;rounded=0;orthogonalLoop=1;jettySize=auto;html=1;entryX=0.5;entryY=0;entryDx=0;entryDy=0;" edge="1" parent="1" source="o-XcE64dzOmIVGHSRt7X-19" target="o-XcE64dzOmIVGHSRt7X-51">
          <mxGeometry relative="1" as="geometry" />
        </mxCell>
        <mxCell id="o-XcE64dzOmIVGHSRt7X-56" value="select" style="edgeStyle=orthogonalEdgeStyle;rounded=0;orthogonalLoop=1;jettySize=auto;html=1;entryX=0.5;entryY=0;entryDx=0;entryDy=0;" edge="1" parent="1" source="o-XcE64dzOmIVGHSRt7X-19" target="o-XcE64dzOmIVGHSRt7X-52">
          <mxGeometry x="-0.7647" relative="1" as="geometry">
            <mxPoint as="offset" />
          </mxGeometry>
        </mxCell>
        <mxCell id="o-XcE64dzOmIVGHSRt7X-75" value="select" style="edgeStyle=orthogonalEdgeStyle;rounded=0;orthogonalLoop=1;jettySize=auto;html=1;" edge="1" parent="1" source="o-XcE64dzOmIVGHSRt7X-19" target="o-XcE64dzOmIVGHSRt7X-74">
          <mxGeometry relative="1" as="geometry" />
        </mxCell>
        <mxCell id="o-XcE64dzOmIVGHSRt7X-93" style="edgeStyle=orthogonalEdgeStyle;rounded=0;orthogonalLoop=1;jettySize=auto;html=1;entryX=0.188;entryY=-0.01;entryDx=0;entryDy=0;entryPerimeter=0;" edge="1" parent="1" source="o-XcE64dzOmIVGHSRt7X-19" target="o-XcE64dzOmIVGHSRt7X-35">
          <mxGeometry relative="1" as="geometry">
            <mxPoint x="720" y="720" as="targetPoint" />
            <Array as="points">
              <mxPoint x="690" y="280" />
              <mxPoint x="690" y="750" />
              <mxPoint x="693" y="750" />
            </Array>
          </mxGeometry>
        </mxCell>
        <mxCell id="o-XcE64dzOmIVGHSRt7X-19" value="option" style="rounded=1;whiteSpace=wrap;html=1;" vertex="1" parent="1">
          <mxGeometry x="930" y="250" width="120" height="60" as="geometry" />
        </mxCell>
        <mxCell id="o-XcE64dzOmIVGHSRt7X-65" style="edgeStyle=orthogonalEdgeStyle;rounded=0;orthogonalLoop=1;jettySize=auto;html=1;" edge="1" parent="1" source="o-XcE64dzOmIVGHSRt7X-21" target="o-XcE64dzOmIVGHSRt7X-63">
          <mxGeometry relative="1" as="geometry" />
        </mxCell>
        <mxCell id="o-XcE64dzOmIVGHSRt7X-66" style="edgeStyle=orthogonalEdgeStyle;rounded=0;orthogonalLoop=1;jettySize=auto;html=1;entryX=0.5;entryY=0;entryDx=0;entryDy=0;" edge="1" parent="1" source="o-XcE64dzOmIVGHSRt7X-21" target="o-XcE64dzOmIVGHSRt7X-64">
          <mxGeometry relative="1" as="geometry" />
        </mxCell>
        <mxCell id="o-XcE64dzOmIVGHSRt7X-94" value="NO" style="edgeStyle=orthogonalEdgeStyle;rounded=0;orthogonalLoop=1;jettySize=auto;html=1;entryX=0;entryY=0.5;entryDx=0;entryDy=0;" edge="1" parent="1" source="o-XcE64dzOmIVGHSRt7X-21" target="o-XcE64dzOmIVGHSRt7X-35">
          <mxGeometry x="-0.9444" y="-10" relative="1" as="geometry">
            <Array as="points">
              <mxPoint x="-130" y="280" />
              <mxPoint x="-130" y="840" />
            </Array>
            <mxPoint as="offset" />
          </mxGeometry>
        </mxCell>
        <mxCell id="o-XcE64dzOmIVGHSRt7X-21" value="save party?" style="rounded=1;whiteSpace=wrap;html=1;" vertex="1" parent="1">
          <mxGeometry x="-50" y="250" width="120" height="60" as="geometry" />
        </mxCell>
        <mxCell id="o-XcE64dzOmIVGHSRt7X-39" value="yes" style="edgeStyle=orthogonalEdgeStyle;rounded=0;orthogonalLoop=1;jettySize=auto;html=1;entryX=0.5;entryY=0;entryDx=0;entryDy=0;" edge="1" parent="1" source="o-XcE64dzOmIVGHSRt7X-23" target="o-XcE64dzOmIVGHSRt7X-38">
          <mxGeometry relative="1" as="geometry" />
        </mxCell>
        <mxCell id="o-XcE64dzOmIVGHSRt7X-71" value="no" style="edgeStyle=orthogonalEdgeStyle;rounded=0;orthogonalLoop=1;jettySize=auto;html=1;" edge="1" parent="1">
          <mxGeometry relative="1" as="geometry">
            <mxPoint x="430" y="360" as="sourcePoint" />
            <mxPoint x="670" y="840" as="targetPoint" />
          </mxGeometry>
        </mxCell>
        <mxCell id="o-XcE64dzOmIVGHSRt7X-23" value="change&amp;nbsp; party ?" style="rounded=1;whiteSpace=wrap;html=1;" vertex="1" parent="1">
          <mxGeometry x="470" y="260" width="120" height="60" as="geometry" />
        </mxCell>
        <mxCell id="o-XcE64dzOmIVGHSRt7X-40" style="edgeStyle=orthogonalEdgeStyle;rounded=0;orthogonalLoop=1;jettySize=auto;html=1;" edge="1" parent="1" source="o-XcE64dzOmIVGHSRt7X-24" target="o-XcE64dzOmIVGHSRt7X-32">
          <mxGeometry relative="1" as="geometry" />
        </mxCell>
        <mxCell id="o-XcE64dzOmIVGHSRt7X-24" value="restart the party&amp;nbsp;" style="rounded=1;whiteSpace=wrap;html=1;" vertex="1" parent="1">
          <mxGeometry x="-260" y="240" width="120" height="60" as="geometry" />
        </mxCell>
        <mxCell id="o-XcE64dzOmIVGHSRt7X-25" value="exict" style="rounded=1;whiteSpace=wrap;html=1;" vertex="1" parent="1">
          <mxGeometry x="1480" y="250" width="120" height="60" as="geometry" />
        </mxCell>
        <mxCell id="o-XcE64dzOmIVGHSRt7X-32" value="turn back&amp;nbsp;&lt;br&gt;to the current&lt;br&gt;game" style="shape=hexagon;perimeter=hexagonPerimeter2;whiteSpace=wrap;html=1;fixedSize=1;" vertex="1" parent="1">
          <mxGeometry x="-290" y="390" width="120" height="80" as="geometry" />
        </mxCell>
        <mxCell id="o-XcE64dzOmIVGHSRt7X-35" value="turn back to&lt;br&gt;&amp;nbsp;the &quot;menu&quot;" style="rounded=0;whiteSpace=wrap;html=1;" vertex="1" parent="1">
          <mxGeometry x="670" y="810" width="120" height="60" as="geometry" />
        </mxCell>
        <mxCell id="o-XcE64dzOmIVGHSRt7X-38" value="back to&amp;nbsp;save" style="shape=hexagon;perimeter=hexagonPerimeter2;whiteSpace=wrap;html=1;fixedSize=1;" vertex="1" parent="1">
          <mxGeometry x="354" y="400" width="120" height="80" as="geometry" />
        </mxCell>
        <mxCell id="o-XcE64dzOmIVGHSRt7X-62" value="yes" style="edgeStyle=orthogonalEdgeStyle;rounded=0;orthogonalLoop=1;jettySize=auto;html=1;entryX=0.5;entryY=0;entryDx=0;entryDy=0;" edge="1" parent="1" source="o-XcE64dzOmIVGHSRt7X-42" target="o-XcE64dzOmIVGHSRt7X-44">
          <mxGeometry relative="1" as="geometry" />
        </mxCell>
        <mxCell id="o-XcE64dzOmIVGHSRt7X-77" value="no" style="edgeStyle=orthogonalEdgeStyle;rounded=0;orthogonalLoop=1;jettySize=auto;html=1;entryX=0;entryY=0.5;entryDx=0;entryDy=0;" edge="1" parent="1" source="o-XcE64dzOmIVGHSRt7X-42" target="o-XcE64dzOmIVGHSRt7X-35">
          <mxGeometry x="-0.914" relative="1" as="geometry">
            <Array as="points">
              <mxPoint x="270" y="840" />
            </Array>
            <mxPoint as="offset" />
          </mxGeometry>
        </mxCell>
        <mxCell id="o-XcE64dzOmIVGHSRt7X-42" value="new game?" style="rounded=1;whiteSpace=wrap;html=1;" vertex="1" parent="1">
          <mxGeometry x="180" y="250" width="120" height="60" as="geometry" />
        </mxCell>
        <mxCell id="o-XcE64dzOmIVGHSRt7X-44" value="star&amp;nbsp; game from begginnig&amp;nbsp;" style="shape=hexagon;perimeter=hexagonPerimeter2;whiteSpace=wrap;html=1;fixedSize=1;" vertex="1" parent="1">
          <mxGeometry x="120" y="390" width="120" height="80" as="geometry" />
        </mxCell>
        <mxCell id="o-XcE64dzOmIVGHSRt7X-50" value="yes" style="edgeStyle=orthogonalEdgeStyle;rounded=0;orthogonalLoop=1;jettySize=auto;html=1;entryX=0.5;entryY=0;entryDx=0;entryDy=0;" edge="1" parent="1" source="o-XcE64dzOmIVGHSRt7X-45" target="o-XcE64dzOmIVGHSRt7X-49">
          <mxGeometry x="-0.3846" relative="1" as="geometry">
            <Array as="points">
              <mxPoint x="1650" y="410" />
            </Array>
            <mxPoint as="offset" />
          </mxGeometry>
        </mxCell>
        <mxCell id="o-XcE64dzOmIVGHSRt7X-45" value="exit the curent game&lt;br&gt;and turn back to the main menu or switch off the game" style="whiteSpace=wrap;html=1;aspect=fixed;" vertex="1" parent="1">
          <mxGeometry x="1490" y="380" width="100" height="100" as="geometry" />
        </mxCell>
        <mxCell id="o-XcE64dzOmIVGHSRt7X-46" style="edgeStyle=orthogonalEdgeStyle;rounded=0;orthogonalLoop=1;jettySize=auto;html=1;entryX=0.614;entryY=-0.006;entryDx=0;entryDy=0;entryPerimeter=0;" edge="1" parent="1" source="o-XcE64dzOmIVGHSRt7X-25" target="o-XcE64dzOmIVGHSRt7X-45">
          <mxGeometry relative="1" as="geometry" />
        </mxCell>
        <mxCell id="o-XcE64dzOmIVGHSRt7X-48" value="no" style="edgeStyle=orthogonalEdgeStyle;rounded=0;orthogonalLoop=1;jettySize=auto;html=1;entryX=1;entryY=0.5;entryDx=0;entryDy=0;" edge="1" parent="1" source="o-XcE64dzOmIVGHSRt7X-45" target="o-XcE64dzOmIVGHSRt7X-35">
          <mxGeometry x="-0.8938" relative="1" as="geometry">
            <mxPoint x="1398" y="531.8000000000002" as="targetPoint" />
            <Array as="points">
              <mxPoint x="1430" y="410" />
              <mxPoint x="1430" y="840" />
            </Array>
            <mxPoint as="offset" />
          </mxGeometry>
        </mxCell>
        <mxCell id="o-XcE64dzOmIVGHSRt7X-49" value="exit&amp;nbsp;&lt;br&gt;the party&amp;nbsp;&lt;br&gt;or the&amp;nbsp;&lt;br&gt;game" style="rhombus;whiteSpace=wrap;html=1;" vertex="1" parent="1">
          <mxGeometry x="1610" y="550" width="80" height="75" as="geometry" />
        </mxCell>
        <mxCell id="o-XcE64dzOmIVGHSRt7X-58" style="edgeStyle=orthogonalEdgeStyle;rounded=0;orthogonalLoop=1;jettySize=auto;html=1;entryX=0;entryY=0.5;entryDx=0;entryDy=0;exitX=0.5;exitY=1;exitDx=0;exitDy=0;" edge="1" parent="1" source="o-XcE64dzOmIVGHSRt7X-51" target="o-XcE64dzOmIVGHSRt7X-57">
          <mxGeometry relative="1" as="geometry">
            <mxPoint x="690" y="485" as="sourcePoint" />
            <mxPoint x="930" y="590" as="targetPoint" />
            <Array as="points">
              <mxPoint x="760" y="590" />
              <mxPoint x="750" y="590" />
              <mxPoint x="750" y="690" />
            </Array>
          </mxGeometry>
        </mxCell>
        <mxCell id="o-XcE64dzOmIVGHSRt7X-51" value="command" style="rounded=1;whiteSpace=wrap;html=1;" vertex="1" parent="1">
          <mxGeometry x="700" y="400" width="120" height="60" as="geometry" />
        </mxCell>
        <mxCell id="o-XcE64dzOmIVGHSRt7X-97" value="" style="edgeStyle=orthogonalEdgeStyle;rounded=0;orthogonalLoop=1;jettySize=auto;html=1;" edge="1" parent="1" source="o-XcE64dzOmIVGHSRt7X-52" target="o-XcE64dzOmIVGHSRt7X-96">
          <mxGeometry relative="1" as="geometry" />
        </mxCell>
        <mxCell id="o-XcE64dzOmIVGHSRt7X-99" value="" style="edgeStyle=orthogonalEdgeStyle;rounded=0;orthogonalLoop=1;jettySize=auto;html=1;" edge="1" parent="1" source="o-XcE64dzOmIVGHSRt7X-52" target="o-XcE64dzOmIVGHSRt7X-98">
          <mxGeometry relative="1" as="geometry" />
        </mxCell>
        <mxCell id="o-XcE64dzOmIVGHSRt7X-100" style="edgeStyle=orthogonalEdgeStyle;rounded=0;orthogonalLoop=1;jettySize=auto;html=1;entryX=0.5;entryY=0;entryDx=0;entryDy=0;" edge="1" parent="1" source="o-XcE64dzOmIVGHSRt7X-52" target="o-XcE64dzOmIVGHSRt7X-57">
          <mxGeometry relative="1" as="geometry" />
        </mxCell>
        <mxCell id="o-XcE64dzOmIVGHSRt7X-52" value="audio &amp;amp; video command" style="rounded=1;whiteSpace=wrap;html=1;" vertex="1" parent="1">
          <mxGeometry x="930" y="400" width="120" height="60" as="geometry" />
        </mxCell>
        <mxCell id="o-XcE64dzOmIVGHSRt7X-61" style="edgeStyle=orthogonalEdgeStyle;rounded=0;orthogonalLoop=1;jettySize=auto;html=1;" edge="1" parent="1" source="o-XcE64dzOmIVGHSRt7X-57" target="o-XcE64dzOmIVGHSRt7X-35">
          <mxGeometry relative="1" as="geometry">
            <Array as="points">
              <mxPoint x="990" y="840" />
            </Array>
          </mxGeometry>
        </mxCell>
        <mxCell id="o-XcE64dzOmIVGHSRt7X-57" value="back to option" style="rounded=1;whiteSpace=wrap;html=1;" vertex="1" parent="1">
          <mxGeometry x="930" y="660" width="120" height="60" as="geometry" />
        </mxCell>
        <mxCell id="o-XcE64dzOmIVGHSRt7X-68" value="yes&amp;nbsp;&amp;nbsp;" style="edgeStyle=orthogonalEdgeStyle;rounded=0;orthogonalLoop=1;jettySize=auto;html=1;entryX=0;entryY=0.5;entryDx=0;entryDy=0;" edge="1" parent="1">
          <mxGeometry x="-0.9286" relative="1" as="geometry">
            <mxPoint x="-90" y="470" as="sourcePoint" />
            <mxPoint x="660" y="840" as="targetPoint" />
            <Array as="points">
              <mxPoint x="-90" y="840" />
            </Array>
            <mxPoint as="offset" />
          </mxGeometry>
        </mxCell>
        <mxCell id="o-XcE64dzOmIVGHSRt7X-81" value="no" style="edgeStyle=orthogonalEdgeStyle;rounded=0;orthogonalLoop=1;jettySize=auto;html=1;" edge="1" parent="1" source="o-XcE64dzOmIVGHSRt7X-63" target="o-XcE64dzOmIVGHSRt7X-79">
          <mxGeometry relative="1" as="geometry" />
        </mxCell>
        <mxCell id="o-XcE64dzOmIVGHSRt7X-63" value="erase a old save&amp;nbsp;" style="ellipse;whiteSpace=wrap;html=1;aspect=fixed;" vertex="1" parent="1">
          <mxGeometry x="-120" y="390" width="80" height="80" as="geometry" />
        </mxCell>
        <mxCell id="o-XcE64dzOmIVGHSRt7X-69" value="yes&amp;nbsp;" style="edgeStyle=orthogonalEdgeStyle;rounded=0;orthogonalLoop=1;jettySize=auto;html=1;" edge="1" parent="1" source="o-XcE64dzOmIVGHSRt7X-64">
          <mxGeometry x="-0.9175" relative="1" as="geometry">
            <mxPoint x="670" y="840" as="targetPoint" />
            <Array as="points">
              <mxPoint x="90" y="840" />
            </Array>
            <mxPoint as="offset" />
          </mxGeometry>
        </mxCell>
        <mxCell id="o-XcE64dzOmIVGHSRt7X-82" value="no" style="edgeStyle=orthogonalEdgeStyle;rounded=0;orthogonalLoop=1;jettySize=auto;html=1;" edge="1" parent="1" source="o-XcE64dzOmIVGHSRt7X-64" target="o-XcE64dzOmIVGHSRt7X-79">
          <mxGeometry relative="1" as="geometry" />
        </mxCell>
        <mxCell id="o-XcE64dzOmIVGHSRt7X-64" value="create a new save" style="ellipse;whiteSpace=wrap;html=1;aspect=fixed;" vertex="1" parent="1">
          <mxGeometry x="30" y="390" width="80" height="80" as="geometry" />
        </mxCell>
        <mxCell id="o-XcE64dzOmIVGHSRt7X-86" value="" style="edgeStyle=orthogonalEdgeStyle;rounded=0;orthogonalLoop=1;jettySize=auto;html=1;" edge="1" parent="1" source="o-XcE64dzOmIVGHSRt7X-74" target="o-XcE64dzOmIVGHSRt7X-85">
          <mxGeometry relative="1" as="geometry" />
        </mxCell>
        <mxCell id="o-XcE64dzOmIVGHSRt7X-90" value="" style="edgeStyle=orthogonalEdgeStyle;rounded=0;orthogonalLoop=1;jettySize=auto;html=1;exitX=1;exitY=0.5;exitDx=0;exitDy=0;" edge="1" parent="1" source="o-XcE64dzOmIVGHSRt7X-74" target="o-XcE64dzOmIVGHSRt7X-89">
          <mxGeometry relative="1" as="geometry" />
        </mxCell>
        <mxCell id="o-XcE64dzOmIVGHSRt7X-74" value="reset option" style="rhombus;whiteSpace=wrap;html=1;" vertex="1" parent="1">
          <mxGeometry x="1241" y="390" width="80" height="80" as="geometry" />
        </mxCell>
        <mxCell id="o-XcE64dzOmIVGHSRt7X-79" value="&amp;nbsp;back to save&amp;nbsp; party&amp;nbsp;" style="rounded=1;whiteSpace=wrap;html=1;" vertex="1" parent="1">
          <mxGeometry x="-60" y="555" width="120" height="60" as="geometry" />
        </mxCell>
        <mxCell id="o-XcE64dzOmIVGHSRt7X-91" style="edgeStyle=orthogonalEdgeStyle;rounded=0;orthogonalLoop=1;jettySize=auto;html=1;entryX=1;entryY=0.5;entryDx=0;entryDy=0;" edge="1" parent="1" source="o-XcE64dzOmIVGHSRt7X-85" target="o-XcE64dzOmIVGHSRt7X-57">
          <mxGeometry relative="1" as="geometry">
            <Array as="points">
              <mxPoint x="1180" y="690" />
            </Array>
          </mxGeometry>
        </mxCell>
        <mxCell id="o-XcE64dzOmIVGHSRt7X-85" value="reset command ?" style="rhombus;whiteSpace=wrap;html=1;" vertex="1" parent="1">
          <mxGeometry x="1140" y="530" width="80" height="80" as="geometry" />
        </mxCell>
        <mxCell id="o-XcE64dzOmIVGHSRt7X-92" value="yes or no" style="edgeStyle=orthogonalEdgeStyle;rounded=0;orthogonalLoop=1;jettySize=auto;html=1;entryX=1;entryY=0.5;entryDx=0;entryDy=0;" edge="1" parent="1" source="o-XcE64dzOmIVGHSRt7X-89" target="o-XcE64dzOmIVGHSRt7X-57">
          <mxGeometry x="0.6098" relative="1" as="geometry">
            <Array as="points">
              <mxPoint x="1370" y="690" />
            </Array>
            <mxPoint as="offset" />
          </mxGeometry>
        </mxCell>
        <mxCell id="o-XcE64dzOmIVGHSRt7X-89" value="reset&amp;nbsp;audio &amp;amp;video&lt;br&gt;command ?" style="rhombus;whiteSpace=wrap;html=1;" vertex="1" parent="1">
          <mxGeometry x="1320" y="530" width="100" height="100" as="geometry" />
        </mxCell>
        <mxCell id="o-XcE64dzOmIVGHSRt7X-101" style="edgeStyle=orthogonalEdgeStyle;rounded=0;orthogonalLoop=1;jettySize=auto;html=1;entryX=0.5;entryY=0;entryDx=0;entryDy=0;" edge="1" parent="1" source="o-XcE64dzOmIVGHSRt7X-96" target="o-XcE64dzOmIVGHSRt7X-57">
          <mxGeometry relative="1" as="geometry" />
        </mxCell>
        <mxCell id="o-XcE64dzOmIVGHSRt7X-96" value="audio&amp;nbsp;" style="whiteSpace=wrap;html=1;rounded=1;" vertex="1" parent="1">
          <mxGeometry x="860" y="540" width="70" height="30" as="geometry" />
        </mxCell>
        <mxCell id="o-XcE64dzOmIVGHSRt7X-98" value="video" style="whiteSpace=wrap;html=1;rounded=1;" vertex="1" parent="1">
          <mxGeometry x="1050" y="540" width="60" height="30" as="geometry" />
        </mxCell>
        <mxCell id="o-XcE64dzOmIVGHSRt7X-102" style="edgeStyle=orthogonalEdgeStyle;rounded=0;orthogonalLoop=1;jettySize=auto;html=1;entryX=0.5;entryY=0;entryDx=0;entryDy=0;" edge="1" parent="1" source="o-XcE64dzOmIVGHSRt7X-98" target="o-XcE64dzOmIVGHSRt7X-57">
          <mxGeometry relative="1" as="geometry">
            <mxPoint x="990" y="650" as="targetPoint" />
            <Array as="points">
              <mxPoint x="1080" y="620" />
              <mxPoint x="991" y="620" />
              <mxPoint x="991" y="650" />
            </Array>
          </mxGeometry>
        </mxCell>
      </root>
    </mxGraphModel>
  </diagram>
</mxfile>
